<svg width="20" height="20" viewBox="0 0 20 20" fill="none" xmlns="http://www.w3.org/2000/svg">
<path d="M10.8332 13.3333C10.8332 13.7935 10.4602 14.1666 9.99992 14.1666C9.53968 14.1666 9.16658 13.7935 9.16658 13.3333C9.16658 12.873 9.53968 12.4999 9.99992 12.4999C10.4602 12.4999 10.8332 12.873 10.8332 13.3333Z" fill="#5896FF"/>
<path d="M10.75 6.66659C10.75 6.25237 10.4142 5.91659 10 5.91659C9.58581 5.91659 9.25002 6.25237 9.25002 6.66659V10.4166C9.25002 10.8308 9.58581 11.1666 10 11.1666C10.4142 11.1666 10.75 10.8308 10.75 10.4166V6.66659Z" fill="#5896FF"/>
<path fill-rule="evenodd" clip-rule="evenodd" d="M1.74997 10C1.74997 5.44365 5.44361 1.75 9.99994 1.75C14.5563 1.75 18.2499 5.44365 18.2499 10C18.2499 14.5563 14.5563 18.25 9.99994 18.25C5.44361 18.25 1.74997 14.5563 1.74997 10ZM9.99994 3.25C6.27203 3.25 3.24996 6.27208 3.24996 10C3.24996 13.7279 6.27203 16.75 9.99994 16.75C13.7278 16.75 16.7499 13.7279 16.7499 10C16.7499 6.27208 13.7278 3.25 9.99994 3.25Z" fill="#5896FF"/>
</svg>
