<svg width="20" height="20" viewBox="0 0 20 20" fill="none" xmlns="http://www.w3.org/2000/svg">
<path fill-rule="evenodd" clip-rule="evenodd" d="M11.4451 17.7695C12.0498 17.2854 12.858 16.5873 13.6688 15.7328C15.2572 14.059 16.9998 11.6352 16.9998 8.95789C16.9998 5.09189 13.8658 1.95789 9.99979 1.95789C6.13381 1.95789 2.99982 5.09189 2.99982 8.95789C2.99982 11.6352 4.74239 14.059 6.33077 15.7328C7.14159 16.5873 7.94982 17.2854 8.55445 17.7695C8.88697 18.0358 9.22543 18.2975 9.57811 18.5369C9.82824 18.7061 10.1696 18.7068 10.42 18.5379C10.7732 18.2983 11.1122 18.0361 11.4451 17.7695ZM12.2916 8.9578C12.2916 10.2235 11.2655 11.2495 9.9999 11.2495C8.73425 11.2495 7.70824 10.2235 7.70824 8.9578C7.70824 7.69215 8.73425 6.66614 9.9999 6.66614C11.2655 6.66614 12.2916 7.69215 12.2916 8.9578Z" fill="black"/>
</svg>
