<svg width="60" height="60" viewBox="0 0 60 60" fill="none" xmlns="http://www.w3.org/2000/svg">
<g id="Icon1" clip-path="url(#clip0_590_6137)">
<path id="Vector" d="M30 60C46.5685 60 60 46.5685 60 30C60 13.4315 46.5685 0 30 0C13.4315 0 0 13.4315 0 30C0 46.5685 13.4315 60 30 60Z" fill="#C7C8C9"/>
<path id="Vector_2" d="M30.0004 15.8994C30.7459 15.8994 31.3503 16.5039 31.3503 17.2494V31.241L35.7957 26.7956C36.3229 26.2683 37.1778 26.2683 37.7049 26.7956C38.2321 27.3228 38.2321 28.1775 37.7049 28.7048L30.9549 35.4548C30.4278 35.982 29.5729 35.982 29.0458 35.4548L22.2958 28.7048C21.7686 28.1775 21.7686 27.3228 22.2958 26.7956C22.8229 26.2683 23.6778 26.2683 24.205 26.7956L28.6504 31.241V17.2494C28.6504 16.5039 29.2548 15.8994 30.0004 15.8994Z" fill="black"/>
<path id="Vector_3" d="M43.7252 34.3496C43.7252 33.604 43.1209 32.9996 42.3754 32.9996C41.6297 32.9996 41.0254 33.604 41.0254 34.3496V38.1748C41.0254 39.3967 41.0087 39.6874 40.9445 39.8846C40.7813 40.387 40.3876 40.7809 39.8852 40.9441C39.688 41.0081 39.3971 41.0248 38.1754 41.0248H21.8254C20.6036 41.0248 20.3128 41.0081 20.1155 40.9441C19.6132 40.7809 19.2194 40.387 19.0562 39.8846C18.992 39.6874 18.9754 39.3967 18.9754 38.1748V34.3496C18.9754 33.6041 18.371 32.9996 17.6254 32.9996C16.8797 32.9996 16.2754 33.6041 16.2754 34.3496V37.6279C16.2754 38.4226 16.2754 39.0995 16.3207 39.6551C16.3684 40.2389 16.4729 40.8067 16.7495 41.3497C17.1665 42.1681 17.8321 42.8336 18.6505 43.2506C19.1935 43.5272 19.7612 43.6318 20.345 43.6795C20.9006 43.7248 21.5774 43.7248 22.3721 43.7248H37.6285C38.4232 43.7248 39.1 43.7248 39.6556 43.6795C40.2394 43.6318 40.8073 43.5272 41.3501 43.2506C42.1687 42.8336 42.8341 42.1681 43.2512 41.3497C43.5278 40.8067 43.6322 40.2389 43.6799 39.6551C43.7254 39.0995 43.7254 38.4227 43.7252 37.628V34.3496Z" fill="black"/>
</g>
<defs>
<clipPath id="clip0_590_6137">
<rect width="60" height="60" fill="white"/>
</clipPath>
</defs>
</svg>
