<svg width="24" height="24" viewBox="0 0 24 24" fill="none" xmlns="http://www.w3.org/2000/svg">
<g id="Shape">
<g id="Normal">
<path d="M2.6001 11.998C2.6001 6.80655 6.80861 2.59802 12.0001 2.59802C13.8172 2.59802 15.5147 3.11423 16.9527 4.00727L17.9021 3.05787C18.1595 2.80047 18.5466 2.72347 18.8829 2.86277C19.2192 3.00208 19.4385 3.33025 19.4385 3.69426V6.87624C19.4385 7.11494 19.3437 7.34386 19.1749 7.51264C19.0061 7.68142 18.7772 7.77624 18.5385 7.77624H15.3565C14.9925 7.77624 14.6644 7.55697 14.5251 7.22066C14.3858 6.88435 14.4628 6.49725 14.7202 6.23985L15.6371 5.32292C14.5568 4.73297 13.3179 4.39802 12.0001 4.39802C7.80271 4.39802 4.40009 7.80066 4.40009 11.998C4.40009 12.5075 4.4501 13.0045 4.54521 13.4845C4.64182 13.972 4.32488 14.4456 3.8373 14.5422C3.34973 14.6388 2.87615 14.3219 2.77954 13.8343C2.66173 13.2397 2.6001 12.6256 2.6001 11.998Z" fill="#404040"/>
<path d="M20.163 9.45715C20.6506 9.36057 21.1241 9.67753 21.2207 10.1651C21.3384 10.7596 21.4 11.3735 21.4 12.0009C21.4 17.1924 17.1915 21.4009 12.0001 21.4009C10.1835 21.4009 8.48648 20.885 7.04868 19.9925L6.09555 20.9456C5.83815 21.203 5.45105 21.28 5.11474 21.1407C4.77844 21.0014 4.55916 20.6732 4.55916 20.3092L4.55916 17.1272C4.55916 16.8885 4.65398 16.6596 4.82276 16.4908C4.99155 16.322 5.22046 16.2272 5.45916 16.2272H8.64113C9.00514 16.2272 9.33331 16.4465 9.47261 16.7828C9.61192 17.1191 9.53492 17.5062 9.27752 17.7636L8.36439 18.6768C9.44433 19.2662 10.6828 19.6009 12.0001 19.6009C16.1974 19.6009 19.6001 16.1983 19.6001 12.0009C19.6001 11.4916 19.5501 10.9948 19.455 10.5149C19.3584 10.0273 19.6754 9.55373 20.163 9.45715Z" fill="#404040"/>
</g>
</g>
</svg>
