<svg width="60" height="60" viewBox="0 0 60 60" fill="none" xmlns="http://www.w3.org/2000/svg">
<g id="Shape">
<path id="Normal" d="M32.1527 3.52012C30.7993 2.83151 29.1982 2.83151 27.8448 3.52012C26.7586 4.07275 26.135 5.09806 25.7191 5.8918C25.28 6.72987 24.8134 7.85179 24.2683 9.16245L21.2551 16.4072C21.0743 16.8418 20.9765 17.0744 20.8947 17.2413C20.87 17.2916 20.853 17.3227 20.8432 17.3397C20.8281 17.3538 20.8114 17.366 20.7933 17.3759C20.7741 17.38 20.7393 17.3866 20.6838 17.3945C20.4997 17.4208 20.2483 17.4419 19.7791 17.4795L11.958 18.1066C10.543 18.22 9.33173 18.317 8.39896 18.4756C7.51556 18.6259 6.34771 18.9022 5.4865 19.7644C4.41336 20.8388 3.91859 22.3615 4.15527 23.8615C4.34521 25.0653 5.12762 25.9752 5.754 26.616C6.41536 27.2926 7.3382 28.0831 8.41629 29.0065L14.3752 34.111C14.7327 34.4173 14.9237 34.5821 15.0572 34.7116C15.0974 34.7506 15.1217 34.7764 15.1348 34.791C15.1436 34.8096 15.15 34.8293 15.1539 34.8496C15.1518 34.8691 15.1473 34.9042 15.1377 34.9594C15.1058 35.1426 15.0482 35.3882 14.939 35.8461L13.1185 43.4782C12.7891 44.859 12.5071 46.041 12.3697 46.9771C12.2396 47.8637 12.1415 49.0598 12.6954 50.1453C13.3856 51.4979 14.6809 52.439 16.1806 52.6775C17.3841 52.8688 18.4913 52.4059 19.2943 52.0082C20.1422 51.5882 21.1791 50.9548 22.3905 50.2148L29.0865 46.1249C29.4883 45.8796 29.7041 45.7489 29.8684 45.662C29.918 45.6358 29.95 45.6206 29.9679 45.6126C29.9884 45.6101 30.0091 45.6101 30.0296 45.6126C30.0475 45.6206 30.0795 45.6358 30.1291 45.662C30.2934 45.7489 30.5092 45.8796 30.9109 46.1249L37.6071 50.215C38.8184 50.9548 39.8554 51.5883 40.7032 52.0082C41.5062 52.4059 42.6134 52.8688 43.8169 52.6775C45.3166 52.439 46.6119 51.4979 47.3021 50.1453C47.856 49.0598 47.7579 47.8637 47.6278 46.9771C47.4904 46.041 47.2085 44.8591 46.879 43.4784L45.0585 35.8461C44.9492 35.3882 44.8917 35.1426 44.8598 34.9594C44.8502 34.9042 44.8457 34.8691 44.8436 34.8496C44.8475 34.8293 44.8539 34.8096 44.8626 34.791C44.8758 34.7764 44.9001 34.7506 44.9403 34.7116C45.0738 34.5821 45.2647 34.4173 45.6222 34.111L51.5812 29.0066C52.6593 28.0831 53.5821 27.2926 54.2435 26.616C54.8699 25.9752 55.6523 25.0653 55.8422 23.8615C56.0789 22.3615 55.5841 20.8388 54.511 19.7644C53.6498 18.9022 52.4819 18.6259 51.5985 18.4757C50.6657 18.317 49.4545 18.22 48.0395 18.1066L40.2184 17.4795C39.7491 17.4419 39.4978 17.4208 39.3137 17.3945C39.2582 17.3866 39.2234 17.38 39.2042 17.3759C39.1861 17.366 39.1694 17.3538 39.1543 17.3397C39.1445 17.3227 39.1275 17.2916 39.1028 17.2413C39.021 17.0744 38.9232 16.8418 38.7424 16.4072L35.7292 9.16255C35.1841 7.85186 34.7175 6.72989 34.2784 5.8918C33.8625 5.09806 33.2389 4.07275 32.1527 3.52012Z" fill="url(#paint0_linear_855_187)"/>
</g>
<defs>
<linearGradient id="paint0_linear_855_187" x1="10.3637" y1="22.3938" x2="56.5401" y2="57.2274" gradientUnits="userSpaceOnUse">
<stop stop-color="#9A77FF"/>
<stop offset="1" stop-color="#214BFF"/>
</linearGradient>
</defs>
</svg>
