<svg width="20" height="20" viewBox="0 0 20 20" fill="none" xmlns="http://www.w3.org/2000/svg">
<path d="M10.7178 1.17337C10.2666 0.943836 9.73291 0.943836 9.28177 1.17337C8.91972 1.35758 8.71184 1.69935 8.57322 1.96393C8.42685 2.24329 8.27132 2.61726 8.08963 3.05415L7.08521 5.46907C7.02495 5.61394 6.99236 5.69145 6.96507 5.7471C6.95684 5.76388 6.95117 5.77424 6.9479 5.77991C6.94288 5.78461 6.9373 5.78866 6.93129 5.79198C6.92488 5.79334 6.91327 5.79553 6.89478 5.79817C6.83342 5.80693 6.74963 5.81398 6.59323 5.82652L3.98617 6.03552C3.5145 6.07332 3.11076 6.10567 2.79984 6.15855C2.50537 6.20863 2.11609 6.30073 1.82902 6.58813C1.4713 6.94627 1.30638 7.45384 1.38527 7.95384C1.44859 8.35509 1.70939 8.65841 1.91818 8.87201C2.13864 9.09755 2.44625 9.36103 2.80561 9.66885L4.79193 11.3703C4.9111 11.4724 4.97474 11.5274 5.01923 11.5705C5.03264 11.5835 5.04075 11.5921 5.04513 11.597C5.04805 11.6032 5.05018 11.6098 5.05148 11.6165C5.05079 11.623 5.04929 11.6347 5.04608 11.6532C5.03545 11.7142 5.01626 11.7961 4.97985 11.9487L4.37301 14.4927C4.2632 14.953 4.16921 15.347 4.12342 15.659C4.08005 15.9546 4.04734 16.3533 4.23197 16.7151C4.46204 17.166 4.89381 17.4797 5.39371 17.5592C5.79489 17.6229 6.16395 17.4686 6.43162 17.3361C6.71424 17.1961 7.05989 16.9849 7.4637 16.7383L9.6957 15.375C9.8296 15.2932 9.90154 15.2496 9.95632 15.2207C9.97283 15.2119 9.98352 15.2069 9.98949 15.2042C9.99632 15.2034 10.0032 15.2034 10.01 15.2042C10.016 15.2069 10.0267 15.2119 10.0432 15.2207C10.098 15.2496 10.1699 15.2932 10.3038 15.375L12.5359 16.7383C12.9396 16.9849 13.2853 17.1961 13.5679 17.3361C13.8356 17.4686 14.2046 17.6229 14.6058 17.5592C15.1057 17.4797 15.5375 17.166 15.7676 16.7151C15.9522 16.3533 15.9195 15.9546 15.8761 15.659C15.8303 15.347 15.7363 14.953 15.6265 14.4928L15.0197 11.9487C14.9833 11.7961 14.9641 11.7142 14.9534 11.6532C14.9502 11.6347 14.9487 11.623 14.948 11.6165C14.9493 11.6098 14.9515 11.6032 14.9544 11.597C14.9588 11.5921 14.9669 11.5835 14.9803 11.5705C15.0248 11.5274 15.0884 11.4724 15.2076 11.3703L17.1939 9.66886C17.5533 9.36104 17.8609 9.09755 18.0813 8.87201C18.2901 8.65842 18.5509 8.35509 18.6143 7.95384C18.6931 7.45384 18.5282 6.94627 18.1705 6.58813C17.8834 6.30073 17.4942 6.20863 17.1997 6.15855C16.8888 6.10567 16.485 6.07332 16.0133 6.03552L13.4063 5.82652C13.2499 5.81398 13.1661 5.80693 13.1047 5.79817C13.0863 5.79553 13.0746 5.79334 13.0682 5.79198C13.0622 5.78866 13.0566 5.78461 13.0516 5.77991C13.0484 5.77424 13.0427 5.76388 13.0345 5.7471C13.0072 5.69145 12.9746 5.61394 12.9143 5.46907L11.9099 3.05418C11.7282 2.61729 11.5727 2.2433 11.4263 1.96393C11.2877 1.69935 11.0798 1.35758 10.7178 1.17337Z" fill="black"/>
</svg>
