<svg width="20" height="20" viewBox="0 0 20 20" fill="none" xmlns="http://www.w3.org/2000/svg">
<path d="M10.8333 4.37496C11.75 4.37496 12.5 3.62496 12.5 2.70829C12.5 1.79163 11.75 1.04163 10.8333 1.04163C9.91668 1.04163 9.16668 1.79163 9.16668 2.70829C9.16668 3.62496 9.91668 4.37496 10.8333 4.37496ZM7.75001 7.20829L5.61668 17.9666C5.50834 18.475 5.90834 18.9583 6.43334 18.9583H6.50001C6.89168 18.9583 7.22501 18.6916 7.31668 18.3083L8.66668 12.2916L10.4167 13.9583V18.125C10.4167 18.5833 10.7917 18.9583 11.25 18.9583C11.7083 18.9583 12.0833 18.5833 12.0833 18.125V13.425C12.0833 12.9666 11.9 12.5333 11.5667 12.2166L10.3333 11.0416L10.8333 8.54163C11.725 9.57496 13.0167 10.3166 14.4667 10.55C14.9667 10.625 15.4167 10.225 15.4167 9.71663C15.4167 9.30829 15.1167 8.96663 14.7083 8.89996C13.4417 8.69163 12.3917 7.94163 11.8333 6.95829L11 5.62496C10.5333 4.88329 9.60001 4.58329 8.79168 4.92496L5.60001 6.27496C4.98334 6.54163 4.58334 7.14163 4.58334 7.81663V9.79163C4.58334 10.25 4.95834 10.625 5.41668 10.625C5.87501 10.625 6.25001 10.25 6.25001 9.79163V7.79163L7.75001 7.20829Z" fill="black"/>
</svg>
