<svg width="20" height="20" viewBox="0 0 20 20" fill="none" xmlns="http://www.w3.org/2000/svg">
<path d="M15.7667 4.17504C15.6 3.68337 15.1333 3.33337 14.5833 3.33337H5.41667C4.86667 3.33337 4.40833 3.68337 4.23333 4.17504L2.59167 8.90004C2.53333 9.07504 2.5 9.25837 2.5 9.45004V15.4167C2.5 16.1084 3.05833 16.6667 3.75 16.6667C4.44167 16.6667 5 16.1084 5 15.4167V15H15V15.4167C15 16.1 15.5583 16.6667 16.25 16.6667C16.9333 16.6667 17.5 16.1084 17.5 15.4167V9.45004C17.5 9.26671 17.4667 9.07504 17.4083 8.90004L15.7667 4.17504ZM5.41667 12.5C4.725 12.5 4.16667 11.9417 4.16667 11.25C4.16667 10.5584 4.725 10 5.41667 10C6.10833 10 6.66667 10.5584 6.66667 11.25C6.66667 11.9417 6.10833 12.5 5.41667 12.5ZM14.5833 12.5C13.8917 12.5 13.3333 11.9417 13.3333 11.25C13.3333 10.5584 13.8917 10 14.5833 10C15.275 10 15.8333 10.5584 15.8333 11.25C15.8333 11.9417 15.275 12.5 14.5833 12.5ZM4.16667 8.33337L5.225 5.15004C5.34167 4.81671 5.65833 4.58337 6.01667 4.58337H13.9833C14.3417 4.58337 14.6583 4.81671 14.775 5.15004L15.8333 8.33337H4.16667Z" fill="#404040"/>
</svg>
