<svg width="60" height="60" viewBox="0 0 60 60" fill="none" xmlns="http://www.w3.org/2000/svg">
<g clip-path="url(#clip0_590_6134)">
<path d="M30 60C46.5685 60 60 46.5685 60 30C60 13.4315 46.5685 0 30 0C13.4315 0 0 13.4315 0 30C0 46.5685 13.4315 60 30 60Z" fill="#E8E8EA"/>
<path d="M21.2461 22.6523H23.9326V32.3525C23.9223 35.5414 21.5229 37.7255 17.9032 37.7255C14.2632 37.7255 11.8843 35.5414 11.874 32.3525V22.6523H14.54V32.1269C14.5503 34.0033 15.8526 35.3363 17.9032 35.3467C19.954 35.3363 21.2461 34.0033 21.2461 32.1269V22.6523ZM26.6806 37.4999V22.6523H32.2588C35.6631 22.6523 37.4781 24.5594 37.4883 27.3896C37.4781 29.4095 36.5551 30.9067 34.812 31.6142L38.0215 37.4999H35.0478L32.1357 32.0654H29.3467V37.4999H26.6806ZM29.3467 29.83H31.8486C33.8584 29.8403 34.7607 28.9789 34.7607 27.3896C34.7607 25.8104 33.8584 24.8876 31.8486 24.8876H29.3467V29.83ZM39.7851 37.4999V22.6523H42.4512V35.2441H49.0137V37.4999H39.7851Z" fill="#858588"/>
</g>
<defs>
<clipPath id="clip0_590_6134">
<rect width="60" height="60" fill="white"/>
</clipPath>
</defs>
</svg>
